<svg width="21" height="19" viewBox="0 0 21 19" fill="none" xmlns="http://www.w3.org/2000/svg">
<g clip-path="url(#clip0_309_13)">
<path fill-rule="evenodd" clip-rule="evenodd" d="M15.8452 11.924C15.5812 12.0469 14.8266 12.264 14.8266 13.0118V13.3152C14.8266 13.812 15.3065 14.2199 15.7305 14.3428C16.0212 14.4265 16.8665 14.3088 16.8665 15.2293C16.8665 15.9275 15.8745 16.2726 15.3945 15.6294C15.1919 15.3574 15.3839 14.9678 15.0052 14.9678C14.6239 14.9678 14.7919 16.1602 15.8479 16.4008C15.8479 16.8741 15.7412 17.1408 16.1145 17.1408C16.3812 17.1408 16.2905 16.657 16.2905 16.4008C16.7812 16.2883 17.3091 15.8595 17.3091 15.313V15.0515C17.3091 14.5494 16.8531 14.1153 16.4318 14.0003C16.1492 13.9218 15.9039 13.9741 15.6425 13.8198C15.1652 13.5374 15.1652 12.8837 15.5252 12.5621C15.9385 12.1934 16.7252 12.3163 16.8558 13.0223C16.9091 13.3073 16.8638 13.357 17.1331 13.357C17.4265 13.357 17.3731 12.6954 16.9678 12.3006C16.8691 12.2038 16.7998 12.1385 16.6718 12.0679C16.5358 11.992 16.4185 11.9816 16.2905 11.9214C16.2905 11.435 16.3732 11.1814 16.0238 11.1814C15.7572 11.1814 15.8452 11.6652 15.8452 11.9214V11.924Z" fill="white"/>
<path fill-rule="evenodd" clip-rule="evenodd" d="M3.83228 13.5636C3.83228 14.0107 5.14956 15.3757 5.69354 15.781C6.02953 16.0321 6.32818 16.2439 6.71217 16.4321C6.87483 16.5106 7.14149 16.5995 7.24548 16.7355C7.00549 16.7904 6.80817 16.8793 6.58684 16.9577C6.41885 17.0179 6.04819 17.0859 6.04819 17.3003C6.04819 17.7971 7.11749 17.214 7.74946 17.0127C8.38677 16.8087 8.14145 16.6858 7.64013 15.3051C7.5308 15.0018 7.5468 14.9103 7.29081 14.9103C6.8375 14.9103 7.39481 15.8046 7.51214 16.3014C6.88816 16.1602 6.04286 15.4725 5.55488 15.0907C5.18423 14.8004 4.73891 14.2199 4.46159 13.8146C4.30692 13.5871 4.25359 13.3884 4.0536 13.3884C3.96027 13.3884 3.83228 13.5165 3.83228 13.561V13.5636Z" fill="white"/>
<path fill-rule="evenodd" clip-rule="evenodd" d="M12.2294 3.5223C12.2427 3.69488 12.48 4.30677 12.5574 4.50289C12.6587 4.75654 12.7787 5.24553 12.9813 5.4338C13.432 5.3972 13.2587 5.0651 13.152 4.78792C13.0613 4.55258 12.9573 4.2231 12.848 3.99821C13.272 4.09497 14.0666 4.62579 14.4373 4.91605C15.0346 5.38151 15.6212 6.02739 16.0079 6.68112C16.2212 7.04459 16.4825 6.91646 16.4825 6.6942C16.4825 6.4667 16.0212 5.89926 15.8826 5.71883C15.6506 5.4155 15.3946 5.15924 15.1226 4.90036L14.6879 4.54473C14.512 4.41137 14.4026 4.33292 14.2266 4.21525C13.984 4.05574 13.4693 3.72103 13.1627 3.65043V3.56414C13.1813 3.56152 14.3146 3.28957 14.3146 3.04377C14.3146 2.73521 14.1813 2.75351 13.832 2.8738L12.4694 3.3654C12.3174 3.43339 12.3467 3.44647 12.2294 3.5223Z" fill="white"/>
<path fill-rule="evenodd" clip-rule="evenodd" d="M16.0691 9.73272C18.565 9.73272 20.5863 11.7148 20.5863 14.1624C20.5863 16.61 18.565 18.5921 16.0691 18.5921C13.5732 18.5921 11.552 16.61 11.552 14.1624C11.552 11.7148 13.5732 9.73272 16.0691 9.73272ZM16.0691 9.32741C18.7944 9.32741 21.0023 11.4926 21.0023 14.165C21.0023 16.8375 18.7944 19.0026 16.0691 19.0026C13.3439 19.0026 11.136 16.8375 11.136 14.165C11.136 11.4926 13.3439 9.32741 16.0691 9.32741Z" fill="white"/>
<path fill-rule="evenodd" clip-rule="evenodd" d="M6.46132 2.64891V4.12111C6.46132 4.25709 6.34666 4.36953 6.20799 4.36953H4.39473C4.25607 4.36953 4.1414 4.25709 4.1414 4.12111V2.64891H0.448208V10.8467C0.472208 10.8571 0.512206 10.8624 0.533539 10.8624H9.97319C10.0159 10.8624 10.1465 10.8415 10.1465 10.7787L10.1492 2.64891H6.46398H6.46132ZM6.46132 0.439306V2.26975H9.98119C9.91452 2.17823 9.84786 2.08671 9.81319 2.03702L8.88789 0.690339C8.8479 0.635425 8.74923 0.486375 8.71723 0.460226C8.6799 0.441921 8.54924 0.439306 8.51191 0.439306H6.46398H6.46132ZM4.1414 2.26975V0.439306H2.08281C1.83482 0.439306 1.86416 0.457611 1.72816 0.658959C1.57617 0.886457 1.41884 1.11134 1.26684 1.33884C1.12285 1.55326 0.816195 1.95073 0.616202 2.26975H4.1414ZM0.000225161 2.52078V10.865C0.000225161 11.1369 0.245549 11.2991 0.530872 11.2991H9.97052C10.3038 11.2991 10.5918 11.0873 10.5918 10.7787V2.52078C10.5918 2.32466 10.2905 1.9455 10.1838 1.79122L9.25588 0.441921C9.04256 0.15951 9.01322 0 8.50924 0H2.08281C1.62416 0 1.54417 0.135976 1.35484 0.415772C1.19218 0.65896 1.05619 0.857693 0.893525 1.09304C0.741531 1.31792 -0.00244141 2.32989 -0.00244141 2.51817L0.000225161 2.52078ZM4.57072 0.439306H6.04V3.95376H4.57072V0.439306ZM1.5975 9.52092H3.42143C3.53343 9.52092 3.62409 9.60983 3.62409 9.71965C3.62409 9.82948 3.53343 9.91839 3.42143 9.91839H1.5975C1.4855 9.91839 1.39484 9.82948 1.39484 9.71965C1.39484 9.60983 1.4855 9.52092 1.5975 9.52092Z" fill="white"/>
</g>
<defs>
<clipPath id="clip0_309_13">
<rect width="21" height="19" fill="white"/>
</clipPath>
</defs>
</svg>
